<?xml version="1.0" encoding="utf-8"?>
<!-- Generator: Adobe Illustrator 15.0.0, SVG Export Plug-In . SVG Version: 6.00 Build 0)  -->
<!DOCTYPE svg PUBLIC "-//W3C//DTD SVG 1.1//EN" "http://www.w3.org/Graphics/SVG/1.1/DTD/svg11.dtd">
<svg version="1.1" id="レイヤー_1" xmlns="http://www.w3.org/2000/svg" xmlns:xlink="http://www.w3.org/1999/xlink" x="0px"
	 y="0px" width="717.222px" height="75.134px" viewBox="0 0 717.222 75.134" enable-background="new 0 0 717.222 75.134"
	 xml:space="preserve">
<g>
	<path fill="#FF9D00" d="M75.086,68.475c0,3.658-2.965,6.623-6.623,6.623H6.709c-3.658,0-6.623-2.965-6.623-6.623V6.72
		c0-3.658,2.965-6.623,6.623-6.623h61.755c3.658,0,6.623,2.965,6.623,6.623V68.475z"/>
	<polygon fill="#FFF0D9" points="37.538,6.641 45.913,29.308 70.058,30.268 51.088,45.236 57.637,68.497 37.538,55.081 
		17.44,68.497 23.988,45.236 5.019,30.268 29.164,29.308 	"/>
</g>
<g>
	<path fill="#FF9D00" d="M155.086,68.475c0,3.658-2.965,6.623-6.623,6.623H86.709c-3.658,0-6.623-2.965-6.623-6.623V6.72
		c0-3.658,2.965-6.623,6.623-6.623h61.755c3.658,0,6.623,2.965,6.623,6.623V68.475z"/>
	<polygon fill="#FFF0D9" points="117.385,6.641 125.759,29.308 149.905,30.268 130.935,45.236 137.483,68.497 117.385,55.081 
		97.286,68.497 103.835,45.236 84.865,30.268 109.01,29.308 	"/>
</g>
<g>
	<path fill="#FF9D00" d="M235.086,68.475c0,3.658-2.965,6.623-6.623,6.623h-61.755c-3.658,0-6.623-2.965-6.623-6.623V6.72
		c0-3.658,2.965-6.623,6.623-6.623h61.755c3.658,0,6.623,2.965,6.623,6.623V68.475z"/>
	<polygon fill="#FFF0D9" points="197.231,6.641 205.606,29.308 229.751,30.268 210.781,45.236 217.33,68.497 197.231,55.081 
		177.133,68.497 183.681,45.236 164.711,30.268 188.856,29.308 	"/>
</g>
<g>
	<path fill="#FF9D00" d="M316.086,68.475c0,3.658-2.965,6.623-6.623,6.623h-61.755c-3.658,0-6.623-2.965-6.623-6.623V6.72
		c0-3.658,2.965-6.623,6.623-6.623h61.755c3.658,0,6.623,2.965,6.623,6.623V68.475z"/>
	<polygon fill="#FFF0D9" points="277.828,6.641 286.202,29.308 310.348,30.268 291.377,45.236 297.926,68.497 277.828,55.081 
		257.729,68.497 264.278,45.236 245.308,30.268 269.453,29.308 	"/>
</g>
<g>
	<path fill="#FF9D00" d="M396.086,68.475c0,3.658-2.965,6.623-6.623,6.623h-61.754c-3.658,0-6.623-2.965-6.623-6.623V6.72
		c0-3.658,2.965-6.623,6.623-6.623h61.754c3.658,0,6.623,2.965,6.623,6.623V68.475z"/>
	<polygon fill="#FFF0D9" points="358.924,6.641 367.299,29.308 391.444,30.268 372.474,45.236 379.023,68.497 358.924,55.081 
		338.826,68.497 345.374,45.236 326.404,30.268 350.55,29.308 	"/>
</g>
<g>
	<path fill="#FFF0D9" d="M476.086,68.475c0,3.658-2.965,6.623-6.623,6.623h-61.754c-3.658,0-6.623-2.965-6.623-6.623V6.72
		c0-3.658,2.965-6.623,6.623-6.623h61.754c3.658,0,6.623,2.965,6.623,6.623V68.475z"/>
	<polygon fill="#FFFFFF" points="438.57,6.309 446.944,28.976 471.088,29.936 452.12,44.905 458.668,68.166 438.57,54.75 
		418.471,68.166 425.019,44.905 406.049,29.936 430.195,28.976 	"/>
</g>
<g>
	<path fill="#FFF0D9" d="M556.086,68.475c0,3.658-2.965,6.623-6.622,6.623h-61.756c-3.657,0-6.622-2.965-6.622-6.623V6.72
		c0-3.658,2.965-6.623,6.622-6.623h61.756c3.657,0,6.622,2.965,6.622,6.623V68.475z"/>
	<polygon fill="#FFFFFF" points="518.667,6.309 527.041,28.976 551.185,29.936 532.215,44.905 538.764,68.166 518.667,54.75 
		498.568,68.166 505.116,44.905 486.145,29.936 510.292,28.976 	"/>
	<polygon fill="#FFFFFF" points="518.667,6.309 527.041,28.976 551.185,29.936 532.215,44.905 538.764,68.166 518.667,54.75 
		498.568,68.166 505.116,44.905 486.145,29.936 510.292,28.976 	"/>
</g>
<g>
	<path fill="#FFF0D9" d="M637.086,68.475c0,3.658-2.965,6.623-6.622,6.623h-61.756c-3.657,0-6.622-2.965-6.622-6.623V6.72
		c0-3.658,2.965-6.623,6.622-6.623h61.756c3.657,0,6.622,2.965,6.622,6.623V68.475z"/>
	<polygon fill="#FFFFFF" points="600.012,6.309 608.387,28.976 632.532,29.936 613.562,44.905 620.111,68.166 600.012,54.75 
		579.915,68.166 586.462,44.905 567.492,29.936 591.638,28.976 	"/>
	<polygon fill="#FFFFFF" points="600.012,6.309 608.387,28.976 632.532,29.936 613.562,44.905 620.111,68.166 600.012,54.75 
		579.915,68.166 586.462,44.905 567.492,29.936 591.638,28.976 	"/>
</g>
<g>
	<path fill="#FFF0D9" d="M717.086,68.475c0,3.658-2.965,6.623-6.623,6.623h-61.754c-3.658,0-6.623-2.965-6.623-6.623V6.72
		c0-3.658,2.965-6.623,6.623-6.623h61.754c3.658,0,6.623,2.965,6.623,6.623V68.475z"/>
	<polygon fill="#FFFFFF" points="679.859,6.309 688.234,28.976 712.378,29.936 693.409,44.905 699.958,68.166 679.859,54.75 
		659.76,68.166 666.309,44.905 647.338,29.936 671.485,28.976 	"/>
	<polygon fill="#FFFFFF" points="679.859,6.309 688.234,28.976 712.378,29.936 693.409,44.905 699.958,68.166 679.859,54.75 
		659.76,68.166 666.309,44.905 647.338,29.936 671.485,28.976 	"/>
</g>
<polygon fill="#FFFFFF" points="132.301,512.6 141.74,538.149 168.956,539.231 147.574,556.104 154.955,582.322 132.301,567.2 
	109.646,582.322 117.028,556.104 95.646,539.231 122.861,538.149 "/>
<polygon fill="#FFFFFF" points="222.301,512.6 231.74,538.149 258.956,539.231 237.574,556.104 244.955,582.322 222.301,567.2 
	199.646,582.322 207.028,556.104 185.646,539.231 212.861,538.149 "/>
<polygon fill="#FFFFFF" points="312.301,512.6 321.74,538.149 348.956,539.231 327.574,556.104 334.955,582.322 312.301,567.2 
	289.646,582.322 297.028,556.104 275.646,539.231 302.861,538.149 "/>
<polygon fill="#FFFFFF" points="402.301,512.6 411.741,538.149 438.956,539.231 417.574,556.104 424.956,582.322 402.301,567.2 
	379.647,582.322 387.028,556.104 365.646,539.231 392.862,538.149 "/>
</svg>
