<?xml version="1.0" encoding="utf-8"?>
<!-- Generator: Adobe Illustrator 15.0.0, SVG Export Plug-In . SVG Version: 6.00 Build 0)  -->
<!DOCTYPE svg PUBLIC "-//W3C//DTD SVG 1.1//EN" "http://www.w3.org/Graphics/SVG/1.1/DTD/svg11.dtd">
<svg version="1.1" id="レイヤー_1" xmlns="http://www.w3.org/2000/svg" xmlns:xlink="http://www.w3.org/1999/xlink" x="0px"
	 y="0px" width="274.15px" height="258.463px" viewBox="0 0 274.15 258.463" enable-background="new 0 0 274.15 258.463"
	 xml:space="preserve">
<path d="M97.959,2c22.449,0,25.17,27.21,27.211,53.061s3.401,59.864-28.571,59.864S55.102,83.633,55.102,65.946S70.068,2,97.959,2z"
	/>
<path d="M26.53,90.436c14.286,0,38.775,42.178,40.136,57.823s-4.762,38.095-31.973,38.095S3.401,154.381,3.401,138.055
	C3.401,121.728,10.884,90.436,26.53,90.436z"/>
<path d="M176.514,2c-22.449,0-25.17,27.21-27.211,53.061s-3.4,59.864,28.572,59.864s41.496-31.292,41.496-48.979
	S204.406,2,176.514,2z"/>
<path d="M247.944,90.436c-14.287,0-38.775,42.178-40.137,57.823s4.762,38.095,31.973,38.095s31.293-31.973,31.293-48.299
	C271.073,121.728,263.59,90.436,247.944,90.436z"/>
<path d="M182.685,172.748c-8.843-12.245-25.17-39.455-44.897-39.455c-0.064,0-0.122,0.009-0.187,0.009
	c-0.064,0-0.122-0.009-0.186-0.009c-19.728,0-36.055,27.21-44.898,39.455s-36.055,29.933-36.055,48.979s21.088,34.014,36.735,34.014
	s21.769-7.482,44.218-7.482c0.064,0,0.123-0.007,0.186-0.008c0.064,0.001,0.122,0.008,0.187,0.008
	c22.449,0,28.57,7.482,44.217,7.482s36.735-14.967,36.735-34.014S191.528,184.993,182.685,172.748z"/>
</svg>
