<?xml version="1.0" encoding="utf-8"?>
<!-- Generator: Adobe Illustrator 15.0.0, SVG Export Plug-In . SVG Version: 6.00 Build 0)  -->
<!DOCTYPE svg PUBLIC "-//W3C//DTD SVG 1.1//EN" "http://www.w3.org/Graphics/SVG/1.1/DTD/svg11.dtd">
<svg version="1.1" id="レイヤー_1" xmlns="http://www.w3.org/2000/svg" xmlns:xlink="http://www.w3.org/1999/xlink" x="0px"
	 y="0px" width="1819.575px" height="258.463px" viewBox="0 0 1819.575 258.463" enable-background="new 0 0 1819.575 258.463"
	 xml:space="preserve">
<path fill="#E35000" d="M97.959,2c22.449,0,25.17,27.21,27.211,53.061s3.401,59.864-28.57,59.864
	c-31.973,0-41.497-31.292-41.497-48.979S70.068,2,97.959,2z"/>
<path fill="#E35000" d="M26.53,90.436c14.286,0,38.775,42.178,40.136,57.823s-4.762,38.096-31.973,38.096
	S3.401,154.381,3.401,138.056C3.401,121.728,10.884,90.436,26.53,90.436z"/>
<path fill="#E35000" d="M176.514,2c-22.449,0-25.17,27.21-27.211,53.061s-3.4,59.864,28.571,59.864
	c31.973,0,41.496-31.292,41.496-48.979S204.406,2,176.514,2z"/>
<path fill="#E35000" d="M247.944,90.436c-14.287,0-38.775,42.178-40.137,57.823c-1.362,15.645,4.762,38.096,31.973,38.096
	c27.211,0,31.293-31.974,31.293-48.299C271.073,121.728,263.59,90.436,247.944,90.436z"/>
<path fill="#E35000" d="M182.685,172.748c-8.844-12.245-25.17-39.455-44.897-39.455c-0.063,0-0.122,0.009-0.187,0.009
	s-0.122-0.009-0.187-0.009c-19.728,0-36.055,27.21-44.897,39.455c-8.844,12.245-36.056,29.933-36.056,48.979
	c0,19.045,21.088,34.014,36.735,34.014s21.769-7.482,44.218-7.482c0.064,0,0.123-0.007,0.187-0.008
	c0.063,0.001,0.122,0.008,0.187,0.008c22.449,0,28.57,7.482,44.217,7.482s36.735-14.967,36.735-34.014
	S191.528,184.993,182.685,172.748z"/>
<g>
	<path fill="#E35000" d="M432.461,187.534c-1.866-3.355-4.798-10.07-8.797-10.07c-5.599,0-9.331,8.85-11.729,13.732l-19.461,38.756
		c-3.732,7.02-8.265,16.173-16.528,16.173c-9.864,0-15.729-12.206-20.261-20.751l-50.651-94.294
		c-8.531-16.174-21.594-6.714-21.594-22.277c0-19.53,40.788-21.056,53.051-21.056c10.396,0,42.653,0.305,42.653,18.31
		c0,7.019-5.064,9.765-5.064,13.732c0,5.188,12.263,32.347,18.928,32.347c4.798,0,12.263-15.867,12.263-20.141
		c0-14.647-16.528-14.647-16.528-25.938c0-6.103,1.333-18.31,53.584-18.31c10.13,0,38.655-0.61,38.655,16.173
		c0,10.986-8.531,11.901-8.531,18.92c0,6.104,10.13,29.906,15.995,29.906c7.998,0,18.128-27.77,18.128-29.906
		c0-7.629-7.465-9.46-7.465-19.53c0-15.258,23.727-15.563,32.523-15.563c9.063,0,32.523,0,32.523,15.258
		c0,17.089-16.263,4.883-28.26,30.518l-34.122,76.595c-4.531,9.766-16.263,36.009-27.991,36.009
		c-10.396,0-22.927-24.718-27.726-33.566L432.461,187.534z"/>
	<path fill="#E35000" d="M685.442,169.835c0,53.708,15.995,24.413,15.995,40.893c0,17.395-20.795,36.313-40.256,36.313
		c-21.061,0-21.593-15.563-28.258-15.563c-3.199,0-6.665,3.967-12.529,7.629c-5.864,3.967-13.862,7.936-26.125,7.936
		c-22.128,0-44.254-13.428-44.254-43.639c0-21.666,18.129-48.521,65.048-48.521c8.264,0,11.995,0.61,11.995-10.375
		c0-10.069-0.267-31.126-12.528-31.126c-15.995,0-17.595,32.958-41.321,32.958c-8.53,0-14.929-7.019-14.929-16.784
		c0-25.939,45.054-42.723,70.379-42.723c15.195,0,56.783,6.713,56.783,52.488V169.835L685.442,169.835z M605.467,196.688
		c0,7.935,3.731,16.479,11.463,16.479c10.13,0,10.931-12.513,10.931-21.666c0-6.714,0.267-14.343-7.197-14.343
		C611.597,177.159,605.467,186.924,605.467,196.688z"/>
	<path fill="#E35000" d="M773.943,191.808c0,29.601,9.063,24.412,9.063,36.008c0,18.92-35.456,18.311-46.386,18.311
		c-10.664,0-37.855,0-37.855-18.311c0-14.646,12.264-1.524,13.063-31.432l1.065-45.773c0.533-22.582-15.729-15.258-15.729-31.431
		c0-16.174,61.314-31.432,66.646-31.432c5.864,0,9.597,5.798,9.597,11.901c0,1.831-0.268,3.662-0.268,5.493
		c0,3.662,1.333,7.934,5.332,7.934c4.267,0,6.665-6.408,11.996-12.816c5.332-6.104,13.33-12.512,28.525-12.512
		c55.183,0,45.853,61.947,48.519,108.332c1.333,24.107,12.264,18.613,12.264,31.736c0,5.492,1.065,18.31-49.053,18.31
		c-9.597,0-35.188,0.61-35.188-16.479c0-10.984,8.798-5.797,10.13-25.633c1.333-21.666,8.798-70.492-16.262-70.492
		c-17.063,0-15.463,21.057-15.463,34.789v23.498H773.943z"/>
	<path fill="#E35000" d="M954.415,86.832c39.988,0,61.049,25.328,61.049,46.69c0,17.088-11.197,30.211-26.127,30.211
		c-28.791,0-15.461-37.84-36.521-37.84c-11.729,0-18.127,13.732-18.127,25.939c0,22.582,14.66,45.469,35.723,45.469
		c16.795,0,22.393-7.935,27.992-7.935c7.197,0,11.996,9.154,11.996,16.479c0,18.006-23.994,41.197-61.316,41.197
		c-40.253,0-72.777-33.873-72.777-80.563C876.304,122.535,909.628,86.832,954.415,86.832z"/>
	<path fill="#E35000" d="M1182.874,197.3c0,25.938,13.064,19.53,13.064,31.432c0,17.699-34.123,17.395-43.986,17.395
		c-8.266,0-40.521,0-40.521-15.563c0-8.851,7.465-8.545,9.598-24.108c1.6-9.765,1.865-20.445,1.865-30.517
		c0-15.258-0.268-43.942-19.193-43.942c-16.262,0-15.73,15.868-15.73,29.601v35.398c0,25.328,10.664,20.141,10.664,31.127
		c0,17.699-30.391,18.004-40.52,18.004c-38.123,0-46.92-9.154-46.92-18.613c0-12.207,10.396-6.715,14.93-26.55
		c3.199-14.343,3.199-54.624,3.199-71.408c0-13.732-0.801-27.77-1.066-41.502c-0.533-21.667-16.529-37.038-16.529-51.38
		c0-24.413,69.314-30.821,69.58-30.821c7.996,0,8.529,2.747,8.529,11.596l-1.6,80.98c-0.268,5.798-0.533,15.563,6.398,15.563
		c7.996,0,11.463-27.159,41.32-27.159c49.053,0,45.586,52.792,45.854,61.337L1182.874,197.3z"/>
	<path fill="#E35000" d="M1332.424,169.835c0,53.708,15.996,24.413,15.996,40.893c0,17.395-20.795,36.313-40.256,36.313
		c-21.061,0-21.592-15.563-28.258-15.563c-3.199,0-6.664,3.967-12.529,7.629c-5.865,3.967-13.863,7.936-26.125,7.936
		c-22.127,0-44.254-13.428-44.254-43.639c0-21.666,18.129-48.521,65.047-48.521c8.264,0,11.996,0.61,11.996-10.375
		c0-10.069-0.266-31.126-12.529-31.126c-15.994,0-17.594,32.958-41.32,32.958c-8.529,0-14.93-7.019-14.93-16.784
		c0-25.939,45.055-42.723,70.379-42.723c15.195,0,56.783,6.713,56.783,52.488V169.835L1332.424,169.835z M1252.45,196.688
		c0,7.935,3.73,16.479,11.463,16.479c10.129,0,10.93-12.513,10.93-21.666c0-6.714,0.268-14.343-7.197-14.343
		C1258.581,177.159,1252.45,186.924,1252.45,196.688z"/>
	<path fill="#E35000" d="M1426.256,191.808c0,29.601,9.064,24.412,9.064,36.008c0,18.92-35.455,18.311-46.387,18.311
		c-10.662,0-37.854,0-37.854-18.311c0-14.646,12.262-1.524,13.063-31.432l1.066-45.773c0.533-22.582-15.729-15.258-15.729-31.431
		c0-16.174,61.313-31.432,66.645-31.432c5.865,0,9.598,5.798,9.598,11.901c0,1.831-0.268,3.662-0.268,5.493
		c0,3.662,1.334,7.934,5.332,7.934c4.266,0,6.666-6.408,11.996-12.816c5.332-6.104,13.33-12.512,28.525-12.512
		c55.184,0,45.854,61.947,48.52,108.332c1.332,24.107,12.262,18.613,12.262,31.736c0,5.492,1.066,18.31-49.051,18.31
		c-9.598,0-35.189,0.61-35.189-16.479c0-10.984,8.799-5.797,10.131-25.633c1.332-21.666,8.797-70.492-16.264-70.492
		c-17.061,0-15.461,21.057-15.461,34.789V191.808L1426.256,191.808z"/>
	<path fill="#E35000" d="M1610.461,176.854c0,20.445,7.463,25.328,14.662,25.328c8.264,0,13.063-7.02,17.861-7.02
		c5.332,0,9.063,8.545,9.063,14.038c0,20.141-30.391,37.84-57.314,37.84c-13.598,0-47.721-6.714-47.721-55.233v-62.864
		c0-5.493,0-7.629-1.332-8.544c-1.334-0.916-4.266-0.305-10.396-0.305c-6.932,0-10.396,0.305-11.73-1.221
		c-1.865-2.136-1.332-5.188-1.332-12.207c0-4.272-0.801-7.629,2.398-10.07l60.781-44.248c6.133-4.272,5.865-3.357,13.863-3.357
		c10.662,0,11.195-1.221,11.195,12.817c0,9.46-0.531,18.92,0.801,22.582c0.801,2.441,2.666,2.441,9.598,2.441h18.66
		c11.465,0,11.465,0.916,11.465,14.647c0,17.395-1.867,18.615-12.264,18.615h-18.396c-9.33,0-9.863,0.305-9.863,11.291v45.47
		H1610.461z"/>
	<path fill="#E35000" d="M1653.377,172.276c0-54.625,41.855-85.445,85.842-85.445c46.652,0,73.311,41.807,73.311,79.646
		c0,50.047-46.918,80.563-86.107,80.563C1686.967,247.041,1653.377,220.492,1653.377,172.276z M1727.754,122.84
		c-8.797,0-13.596,9.46-13.063,18.31c1.066,19.226,5.865,66.221,24.26,67.44c10.131,0.61,12.264-9.155,12.264-18.92
		C1751.215,175.938,1745.883,122.84,1727.754,122.84z"/>
</g>
</svg>
